HIERARCHY
ROOT Hips
{
	OFFSET 0.000000 0.000000 0.000000 
	CHANNELS 6 Xposition Yposition Zposition Zrotation Yrotation Xrotation
	JOINT LeftUpLeg
	{
		OFFSET 1.363060 -1.794630 0.839290 
		CHANNELS 3 Zrotation Yrotation Xrotation
		JOINT LeftLeg
		{
			OFFSET 2.448110 -6.726130 0.000000 
			CHANNELS 3 Zrotation Yrotation Xrotation
			JOINT LeftFoot
			{
				OFFSET 2.562200 -7.039590 0.000000 
				CHANNELS 3 Zrotation Yrotation Xrotation
				JOINT LeftToeBase
				{
					OFFSET 0.157640 -0.433110 2.322550 
					CHANNELS 3 Zrotation Yrotation Xrotation
					End Site
					{
						OFFSET 0.000000 0.000000 0.000000 
					}
				}
			}
		}
	}
	JOINT RightUpLeg
	{
		OFFSET -1.305520 -1.794630 0.839290 
		CHANNELS 3 Zrotation Yrotation Xrotation
		JOINT RightLeg
		{
			OFFSET -2.542530 -6.985550 0.000000 
			CHANNELS 3 Zrotation Yrotation Xrotation
			JOINT RightFoot
			{
				OFFSET -2.568260 -7.056230 0.000000 
				CHANNELS 3 Zrotation Yrotation Xrotation
				JOINT RightToeBase
				{
					OFFSET -0.164730 -0.452590 2.363150 
					CHANNELS 3 Zrotation Yrotation Xrotation
					End Site
					{
						OFFSET 0.000000 0.000000 0.000000 
					}
				}
			}
		}
	}
	JOINT Spine
	{
		OFFSET 0.028270 2.035590 -0.193380 
		CHANNELS 3 Zrotation Yrotation Xrotation
		JOINT Spine1
		{
			OFFSET 0.056720 2.048850 -0.042750 
			CHANNELS 3 Zrotation Yrotation Xrotation
			JOINT Neck1
			{
				OFFSET -0.054170 1.746240 0.172020 
				CHANNELS 3 Zrotation Yrotation Xrotation
				JOINT Head
				{
					OFFSET 0.104070 1.761360 -0.123970 
					CHANNELS 3 Zrotation Yrotation Xrotation
					End Site
					{
						OFFSET 0.000000 0.000000 0.000000 
					}
				}
			}
			JOINT LeftArm
			{
				OFFSET 3.362410 1.200890 -0.311210 
				CHANNELS 3 Zrotation Yrotation Xrotation
				JOINT LeftForeArm
				{
					OFFSET 4.983000 -0.000000 -0.000000 
					CHANNELS 3 Zrotation Yrotation Xrotation
					JOINT LeftHand
					{
						OFFSET 3.483560 -0.000000 -0.000000 
						CHANNELS 3 Zrotation Yrotation Xrotation
						JOINT LeftHandIndex1
						{
							OFFSET 0.715260 -0.000000 -0.000000 
							CHANNELS 3 Zrotation Yrotation Xrotation
							End Site
							{
								OFFSET 0.000000 0.000000 0.000000 
							}
						}
					}
				}
			}
			JOINT RightArm
			{
				OFFSET -3.136600 1.374050 -0.404650 
				CHANNELS 3 Zrotation Yrotation Xrotation
				JOINT RightForeArm
				{
					OFFSET -5.241900 -0.000000 -0.000000 
					CHANNELS 3 Zrotation Yrotation Xrotation
					JOINT RightHand
					{
						OFFSET -3.444170 -0.000000 -0.000000 
						CHANNELS 3 Zrotation Yrotation Xrotation
						JOINT RightHandIndex1
						{
							OFFSET -0.622530 -0.000000 -0.000000 
							CHANNELS 3 Zrotation Yrotation Xrotation
							End Site
							{
								OFFSET 0.000000 0.000000 0.000000 
							}
						}
					}
				}
			}
		}
	}
}
MOTION
Frames: 7
Frame Time: 0.041667
-0.677397 18.310423 5.604807 -0.715887 -5.415522 0.361875 -14.097214 -8.839993 -2.231617 0.437913 6.231368 20.950306 -1.503196 11.647375 -19.181894 8.175400 -16.246800 -53.192100 2.937029 1.899879 -1.709834 0.049240 0.695610 1.412411 0.303194 -0.924083 5.820425 0.000000 0.000000 0.000000 -4.651310 2.522861 22.871430 -1.403020 1.743159 -13.454937 6.261085 -5.319422 39.220836 1.394500 -1.519700 12.251000 -87.450901 9.147368 38.822875 34.540866 -42.467798 -11.807192 0.558282 0.546407 -3.651198 -7.125000 0.000000 0.000000 94.843974 -12.462056 24.445852 -38.896007 45.240811 -12.890534 0.804064 -2.918202 16.182876 7.125000 0.000000 0.000000 
-0.678868 18.310619 5.596570 -0.706834 -5.335344 0.223988 -14.063045 -8.816985 -2.230880 0.450812 6.237177 20.988391 -1.481609 11.530117 -19.094091 8.157900 -16.234200 -53.129400 2.923888 1.905681 -1.693613 0.049281 0.706737 1.415741 0.306417 -0.913469 5.825075 0.000000 0.000000 0.000000 -4.771371 2.555938 23.528152 -1.372433 1.758165 -13.577514 6.477284 -5.456070 39.211079 1.454000 -1.558900 12.308900 -86.628477 9.040570 40.148283 36.666437 -44.068140 -13.170768 0.561708 0.582834 -4.828369 -7.125000 0.000000 0.000000 94.288771 -12.568053 25.765625 -40.955555 46.634652 -14.109695 0.818532 -2.828905 16.325787 7.125000 0.000000 0.000000 
-0.677692 18.311403 5.587941 -0.728836 -5.274136 0.076447 -14.011920 -8.733502 -2.263551 0.465483 6.245344 21.039013 -1.485352 11.492875 -18.969896 8.182000 -16.251500 -53.215500 2.909678 1.912640 -1.674902 0.049060 0.719820 1.419624 0.310189 -0.901106 5.830810 0.000000 0.000000 0.000000 -4.803667 2.586825 24.342292 -1.368648 1.773633 -13.700461 6.638043 -5.572965 39.152187 1.498300 -1.596500 12.375100 -85.683703 8.950157 41.656156 39.387965 -45.947940 -14.977009 0.560616 0.626964 -5.714068 -7.125000 0.000000 0.000000 93.528507 -12.655689 27.335343 -43.554452 48.256524 -15.730394 0.812207 -2.719031 16.745659 7.125000 0.000000 0.000000 
-0.676221 18.312482 5.577645 -0.746165 -5.225771 -0.078087 -13.978681 -8.727590 -2.255254 0.475626 6.247024 21.073704 -1.491041 11.483104 -18.900015 8.180000 -16.250100 -53.208600 2.894326 1.919971 -1.655459 0.048927 0.733555 1.423649 0.314117 -0.888113 5.836744 0.000000 0.000000 0.000000 -4.868253 2.629886 25.220531 -1.320879 1.799336 -13.829735 6.572694 -5.613359 38.928007 1.470400 -1.629100 12.386300 -84.510859 8.856548 43.454470 42.786709 -48.035847 -17.322985 0.556262 0.678946 -6.106665 -7.125000 0.000000 0.000000 92.488396 -12.730775 29.589523 -46.781832 50.040574 -17.785309 0.856466 -2.594429 16.482867 7.125000 0.000000 0.000000 
-0.676319 18.312580 5.566564 -0.678228 -5.070305 -0.269439 -14.029748 -8.821556 -2.190817 0.486753 6.245848 21.109204 -1.477162 11.410365 -18.854615 8.164400 -16.238800 -53.152600 2.878249 1.927513 -1.635843 0.048900 0.747638 1.427643 0.318042 -0.874822 5.842762 0.000000 0.000000 0.000000 -4.995217 2.633643 26.155013 -1.205497 1.813555 -13.962375 6.633158 -5.682986 38.611646 1.488100 -1.667400 12.382700 -83.169457 8.631373 45.436878 46.753200 -50.147888 -20.183485 0.555433 0.731588 -6.000699 -7.125000 0.000000 0.000000 91.184627 -12.715907 32.213267 -50.676789 51.858663 -20.290904 0.964740 -2.462359 16.111711 7.125000 0.000000 0.000000 
-0.676907 18.312482 5.553130 -0.630031 -4.905503 -0.409726 -14.032189 -8.793165 -2.237067 0.499402 6.248959 21.144193 -1.478229 11.353713 -18.701062 8.207000 -16.269400 -53.305000 2.864437 1.934205 -1.619969 0.048923 0.759555 1.431187 0.321325 -0.863448 5.847656 0.000000 0.000000 0.000000 -5.132510 2.652373 26.910519 -1.128605 1.828115 -14.080789 6.903218 -5.816256 38.364378 1.572600 -1.709500 12.391500 -81.749469 8.209060 47.360135 51.199064 -52.130082 -23.497327 0.556536 0.773281 -5.575877 -7.125000 0.000000 0.000000 89.862523 -12.656606 34.309088 -55.179480 53.551050 -23.273025 1.091768 -2.331857 16.403639 7.125000 0.000000 0.000000 
-0.675632 18.313953 5.535675 -0.590059 -4.891808 -0.424195 -14.021690 -8.736683 -2.390563 0.506575 6.259944 21.174270 -1.492374 11.364402 -18.591824 8.229100 -16.285200 -53.383600 2.853584 1.938436 -1.610360 0.049448 0.766897 1.433609 0.323318 -0.856103 5.850002 0.000000 0.000000 0.000000 -5.416845 2.761383 27.271913 -1.038344 1.876229 -14.215402 7.066865 -5.910727 38.252510 1.616000 -1.735700 12.390700 -80.313975 7.658906 49.089920 56.061358 -53.872908 -27.219157 0.556527 0.804074 -5.343271 -7.125000 0.000000 0.000000 88.616194 -12.602153 36.135500 -60.263341 55.011423 -26.809879 1.205379 -2.202530 16.576574 7.125000 0.000000 0.000000 
